{
	"asset":{
		"generator":"Khronos glTF Blender I/O v3.6.27",
		"version":"2.0"
	},
	"scene":0,
	"scenes":[
		{
			"name":"Scene",
			"nodes":[
				0
			]
		}
	],
	"nodes":[
		{
			"mesh":0,
			"name":"BarberShopChair_01.002",
			"translation":[
				-0.011300407350063324,
				0.24165654182434082,
				-0.06826567649841309
			]
		}
	],
	"materials":[
		{
			"doubleSided":true,
			"name":"BarberShopChair_01",
			"normalTexture":{
				"index":0
			},
			"pbrMetallicRoughness":{
				"baseColorTexture":{
					"index":1
				},
				"metallicRoughnessTexture":{
					"index":2
				}
			}
		}
	],
	"meshes":[
		{
			"name":"Mesh.005",
			"primitives":[
				{
					"attributes":{
						"POSITION":0,
						"NORMAL":1,
						"TEXCOORD_0":2
					},
					"indices":3,
					"material":0
				}
			]
		}
	],
	"textures":[
		{
			"sampler":0,
			"source":0
		},
		{
			"sampler":0,
			"source":1
		},
		{
			"sampler":0,
			"source":2
		}
	],
	"images":[
		{
			"mimeType":"image/png",
			"name":"BarberShopChair_01_nor_gl",
			"uri":"BarberShopChair_01_nor_gl.png"
		},
		{
			"mimeType":"image/jpeg",
			"name":"BarberShopChair_01_diff_1k",
			"uri":"BarberShopChair_01_diff_1k.jpg"
		},
		{
			"mimeType":"image/png",
			"name":"BarberShopChair_01_metallic-BarberShopChair_01_roughness",
			"uri":"BarberShopChair_01_metallic-BarberShopChair_01_roughness.png"
		}
	],
	"accessors":[
		{
			"bufferView":0,
			"componentType":5126,
			"count":4684,
			"max":[
				0.3628672659397125,
				1.489005208015442,
				0.8857696652412415
			],
			"min":[
				-0.39364826679229736,
				-5.504142563950154e-08,
				-0.4421367347240448
			],
			"type":"VEC3"
		},
		{
			"bufferView":1,
			"componentType":5126,
			"count":4684,
			"type":"VEC3"
		},
		{
			"bufferView":2,
			"componentType":5126,
			"count":4684,
			"type":"VEC2"
		},
		{
			"bufferView":3,
			"componentType":5123,
			"count":12840,
			"type":"SCALAR"
		}
	],
	"bufferViews":[
		{
			"buffer":0,
			"byteLength":56208,
			"byteOffset":0,
			"target":34962
		},
		{
			"buffer":0,
			"byteLength":56208,
			"byteOffset":56208,
			"target":34962
		},
		{
			"buffer":0,
			"byteLength":37472,
			"byteOffset":112416,
			"target":34962
		},
		{
			"buffer":0,
			"byteLength":25680,
			"byteOffset":149888,
			"target":34963
		}
	],
	"samplers":[
		{
			"magFilter":9729,
			"minFilter":9987
		}
	],
	"buffers":[
		{
			"byteLength":175568,
			"uri":"untitled.bin"
		}
	]
}
